<svg xmlns="http://www.w3.org/2000/svg" version="1.1" xmlns:xlink="http://www.w3.org/1999/xlink" xmlns:svgjs="http://svgjs.dev/svgjs" width="1000" height="164" viewBox="0 0 1000 164"><g transform="matrix(1,0,0,1,-0.6060606060606233,0.4059877315533811)"><svg viewBox="0 0 396 65" data-background-color="#161618" preserveAspectRatio="xMidYMid meet" height="164" width="1000" xmlns="http://www.w3.org/2000/svg" xmlns:xlink="http://www.w3.org/1999/xlink"><g id="tight-bounds" transform="matrix(1,0,0,1,0.2400000000000091,-0.16090977165225695)"><svg viewBox="0 0 395.52 65.32181954330454" height="65.32181954330454" width="395.52"><g><svg viewBox="0 0 520.3287780455646 85.93452301446332" height="65.32181954330454" width="395.52"><g><rect width="7.1680726229634315" height="85.93452301446332" x="98.87611740437225" y="0" fill="#ffffff" opacity="1" stroke-width="0" stroke="transparent" fill-opacity="1" class="rect-o-0" data-fill-palette-color="primary" rx="1%" id="o-0" data-palette-color="#ffffff"></rect></g><g transform="matrix(1,0,0,1,124.80877804556457,0.2137674701852248)"><svg viewBox="0 0 395.52 85.50698807409287" height="85.50698807409287" width="395.52"><g><svg viewBox="0 0 395.52 85.50698807409287" height="85.50698807409287" width="395.52"><g><svg viewBox="0 0 395.52 85.50698807409287" height="85.50698807409287" width="395.52"><g transform="matrix(1,0,0,1,0,0)"><svg width="395.52" viewBox="0.04999876022338867 -37.95000076293945 197.0500030517578 39.60000228881836" height="85.50698807409287" data-palette-color="#ffffff"><svg></svg><g class="undefined-text-0" data-fill-palette-color="primary" id="text-0"><path xmlns="http://www.w3.org/2000/svg" d="M32.3 0h-5.4c-0.167-0.367-0.4-0.9-0.7-1.6-0.3-0.7-0.64-1.51-1.02-2.43-0.387-0.913-0.803-1.913-1.25-3-0.453-1.08-0.913-2.203-1.38-3.37v0h-12.8l-4.3 10.4h-5.4l16.15-37.95c0.2 0.467 0.56 1.317 1.08 2.55 0.513 1.233 1.13 2.707 1.85 4.42 0.713 1.72 1.513 3.62 2.4 5.7 0.88 2.087 1.78 4.197 2.7 6.33 0.913 2.133 1.813 4.233 2.7 6.3 0.88 2.067 1.687 3.967 2.42 5.7 0.733 1.733 1.36 3.207 1.88 4.42 0.513 1.22 0.87 2.063 1.07 2.53zM15.65-24.7l-4 9.7h9.05c-0.467-1.1-0.907-2.16-1.32-3.18-0.42-1.013-0.803-1.947-1.15-2.8-0.353-0.847-0.663-1.587-0.93-2.22-0.267-0.633-0.467-1.133-0.6-1.5v0c-0.033-0.067-0.107-0.3-0.22-0.7-0.12-0.4-0.213-0.767-0.28-1.1v0c-0.067 0.333-0.167 0.7-0.3 1.1-0.133 0.4-0.217 0.633-0.25 0.7zM42.3 0h-5.5v-36.25h9.9c1.9 0 3.643 0.25 5.23 0.75 1.58 0.5 2.947 1.243 4.1 2.23 1.147 0.98 2.037 2.177 2.67 3.59 0.633 1.42 0.95 3.047 0.95 4.88v0c0 1-0.1 1.99-0.3 2.97-0.2 0.987-0.523 1.937-0.97 2.85-0.453 0.92-1.03 1.77-1.73 2.55-0.7 0.787-1.55 1.447-2.55 1.98v0c1.333 2.1 2.783 4.423 4.35 6.97 1.567 2.553 3.15 5.047 4.75 7.48v0h-6.55c-0.667-1.033-1.357-2.117-2.07-3.25-0.72-1.133-1.437-2.26-2.15-3.38-0.72-1.113-1.42-2.213-2.1-3.3-0.687-1.08-1.33-2.087-1.93-3.02v0h-1-5.1zM42.3-31.15v13.05h4.95c1.333 0 2.45-0.227 3.35-0.68 0.9-0.447 1.61-1.003 2.13-1.67 0.513-0.667 0.88-1.383 1.1-2.15 0.213-0.767 0.32-1.467 0.32-2.1v0c0-0.633-0.107-1.327-0.32-2.08-0.22-0.747-0.597-1.447-1.13-2.1-0.533-0.647-1.24-1.187-2.12-1.62-0.887-0.433-1.98-0.65-3.28-0.65v0zM92.25-7.55l2.3 4.95c-0.4 0.3-0.957 0.623-1.67 0.97-0.72 0.353-1.563 0.68-2.53 0.98-0.967 0.3-2.04 0.55-3.22 0.75-1.187 0.2-2.447 0.3-3.78 0.3v0c-2.833 0-5.373-0.49-7.62-1.47-2.253-0.987-4.163-2.313-5.73-3.98-1.567-1.667-2.767-3.6-3.6-5.8-0.833-2.2-1.25-4.533-1.25-7v0c0-2.733 0.493-5.25 1.48-7.55 0.98-2.3 2.32-4.283 4.02-5.95 1.7-1.667 3.693-2.967 5.98-3.9 2.28-0.933 4.703-1.4 7.27-1.4v0c0.967 0 1.95 0.067 2.95 0.2 1 0.133 1.943 0.317 2.83 0.55 0.88 0.233 1.663 0.507 2.35 0.82 0.68 0.32 1.203 0.647 1.57 0.98v0c-0.267 0.4-0.473 0.733-0.62 1-0.153 0.267-0.313 0.543-0.48 0.83-0.167 0.28-0.35 0.603-0.55 0.97-0.2 0.367-0.467 0.85-0.8 1.45v0c-0.433-0.3-0.94-0.55-1.52-0.75-0.587-0.2-1.197-0.367-1.83-0.5-0.633-0.133-1.273-0.233-1.92-0.3-0.653-0.067-1.247-0.1-1.78-0.1v0c-1.933 0-3.723 0.357-5.37 1.07-1.653 0.72-3.08 1.687-4.28 2.9-1.2 1.22-2.14 2.63-2.82 4.23-0.687 1.6-1.03 3.267-1.03 5v0c0 1.7 0.327 3.333 0.98 4.9 0.647 1.567 1.547 2.967 2.7 4.2 1.147 1.233 2.53 2.217 4.15 2.95 1.613 0.733 3.387 1.1 5.32 1.1v0c1.033 0 2.033-0.1 3-0.3 0.967-0.2 1.843-0.433 2.63-0.7 0.78-0.267 1.43-0.533 1.95-0.8 0.513-0.267 0.82-0.467 0.92-0.6zM127.4 0h-5.4c-0.167-0.367-0.4-0.9-0.7-1.6-0.3-0.7-0.64-1.51-1.02-2.43-0.387-0.913-0.803-1.913-1.25-3-0.453-1.08-0.913-2.203-1.38-3.37v0h-12.8l-4.3 10.4h-5.4l16.15-37.95c0.2 0.467 0.56 1.317 1.08 2.55 0.513 1.233 1.13 2.707 1.85 4.42 0.713 1.72 1.513 3.62 2.4 5.7 0.88 2.087 1.78 4.197 2.7 6.33 0.913 2.133 1.813 4.233 2.7 6.3 0.88 2.067 1.687 3.967 2.42 5.7 0.733 1.733 1.36 3.207 1.88 4.42 0.513 1.22 0.87 2.063 1.07 2.53zM110.75-24.7l-4 9.7h9.05c-0.467-1.1-0.907-2.16-1.32-3.18-0.42-1.013-0.803-1.947-1.15-2.8-0.353-0.847-0.663-1.587-0.93-2.22-0.267-0.633-0.467-1.133-0.6-1.5v0c-0.033-0.067-0.107-0.3-0.22-0.7-0.12-0.4-0.213-0.767-0.28-1.1v0c-0.067 0.333-0.167 0.7-0.3 1.1-0.133 0.4-0.217 0.633-0.25 0.7zM158.25-36.25h5.45v37.9c-0.467-0.6-1.367-1.567-2.7-2.9-1.333-1.333-2.867-2.867-4.6-4.6-1.733-1.733-3.573-3.55-5.52-5.45-1.953-1.9-3.797-3.71-5.53-5.43-1.733-1.713-3.25-3.247-4.55-4.6-1.3-1.347-2.167-2.303-2.6-2.87v0l-0.95-1.3 0.15 1.6v23.9h-5.5v-37.95c0.367 0.467 0.977 1.133 1.83 2 0.847 0.867 1.847 1.873 3 3.02 1.147 1.153 2.413 2.397 3.8 3.73 1.38 1.333 2.78 2.683 4.2 4.05 1.413 1.367 2.813 2.707 4.2 4.02 1.38 1.32 2.647 2.547 3.8 3.68 1.147 1.133 2.137 2.133 2.97 3 0.833 0.867 1.417 1.517 1.75 1.95v0l0.95 1.4-0.15-1.7zM197.1 0h-24.5v-36.25h23.8v4.95h-18.3v10.6h16.3v5.05h-16.3v10.6h19z" fill="#ffffff" fill-rule="nonzero" stroke="none" stroke-width="1" stroke-linecap="butt" stroke-linejoin="miter" stroke-miterlimit="10" stroke-dasharray="" stroke-dashoffset="0" font-family="none" font-weight="none" font-size="none" text-anchor="none" style="mix-blend-mode: normal" data-fill-palette-color="primary" opacity="1"></path></g></svg></g></svg></g></svg></g></svg></g><g transform="matrix(1,0,0,1,0,0.2137674701852248)"><svg viewBox="0 0 80.11152938614337 85.50698807409287" height="85.50698807409287" width="80.11152938614337"><g><svg xmlns="http://www.w3.org/2000/svg" data-name="Layer 1" viewBox="20.038375854492188 18 59.96162414550781 64" x="0" y="0" height="85.50698807409287" width="80.11152938614337" class="icon-icon-0" data-fill-palette-color="accent" id="icon-0"><g fill="#ffffff" data-fill-palette-color="accent"><path d="M36 18a8 8 0 0 0-8 8V41h8V26H60V38H72V74H48v8H72a8 8 0 0 0 8-8V32.34L65.66 18Z" fill="#ffffff" data-fill-palette-color="accent"></path><path d="M32 49a12 12 0 0 0-4 23.3V82h8V72.3A12 12 0 0 0 32 49Zm0 16a4 4 0 1 1 4-4A4 4 0 0 1 32 65Z" fill="#ffffff" data-fill-palette-color="accent"></path></g></svg></g></svg></g></svg></g><defs></defs></svg><rect width="395.52" height="65.32181954330454" fill="none" stroke="none" visibility="hidden"></rect></g></svg></g></svg>